<svg xmlns="http://www.w3.org/2000/svg" viewBox="0 0 18 18">
  <!-- Water drop with an inner highlight (cut hole) -->
  <path fill="#000" fill-rule="evenodd" d="
    M9 2.4
    C 13.1 7 14.1 10.4 14.1 12.5
    C 14.1 15.4 11.9 17.1 9 17.1
    C 6.1 17.1 3.9 15.4 3.9 12.5
    C 3.9 10.4 4.9 7 9 2.4
    Z
    M6.75 9.6 A0.85 1.3 0 1 0 8.45 9.6 A0.85 1.3 0 1 0 6.75 9.6 Z
  "/>
  <!-- sparkle -->
  <path fill="#000" d="
    M14.6 1.9
    Q14.85 3.0 16.0 3.35
    Q14.85 3.7 14.6 4.8
    Q14.35 3.7 13.2 3.35
    Q14.35 3.0 14.6 1.9
    Z
  "/>
</svg>
